<?xml version="1.0" encoding="UTF-8" standalone="no"?>
<!-- Created with Inkscape (http://www.inkscape.org/) -->

<svg
   xmlns:dc="http://purl.org/dc/elements/1.1/"
   xmlns:cc="http://creativecommons.org/ns#"
   xmlns:rdf="http://www.w3.org/1999/02/22-rdf-syntax-ns#"
   xmlns:svg="http://www.w3.org/2000/svg"
   xmlns="http://www.w3.org/2000/svg"
   xmlns:sodipodi="http://sodipodi.sourceforge.net/DTD/sodipodi-0.dtd"
   xmlns:inkscape="http://www.inkscape.org/namespaces/inkscape"
   width="210mm"
   height="297mm"
   viewBox="0 0 210 297"
   version="1.1"
   id="svg8"
   inkscape:version="0.92.4 (5da689c313, 2019-01-14)"
   sodipodi:docname="logo.svg">
  <defs
     id="defs2" />
  <sodipodi:namedview
     id="base"
     pagecolor="#ffffff"
     bordercolor="#666666"
     borderopacity="1.0"
     inkscape:pageopacity="0.0"
     inkscape:pageshadow="2"
     inkscape:zoom="0.35"
     inkscape:cx="400"
     inkscape:cy="560"
     inkscape:document-units="mm"
     inkscape:current-layer="layer1"
     showgrid="false"
     inkscape:window-width="1920"
     inkscape:window-height="986"
     inkscape:window-x="-11"
     inkscape:window-y="-11"
     inkscape:window-maximized="1" />
  <metadata
     id="metadata5">
    <rdf:RDF>
      <cc:Work
         rdf:about="">
        <dc:format>image/svg+xml</dc:format>
        <dc:type
           rdf:resource="http://purl.org/dc/dcmitype/StillImage" />
        <dc:title />
      </cc:Work>
    </rdf:RDF>
  </metadata>
  <g
     inkscape:label="Layer 1"
     inkscape:groupmode="layer"
     id="layer1">
    <g
       id="g21"
       transform="matrix(2.9689538,0,0,2.6991817,-223.09783,-188.96388)">
      <path
         style="fill:#9e9fa1;stroke-width:0.26458335"
         d="m 114.64017,171.62931 c -4.46874,-0.56854 -8.81093,-1.63021 -12.5677,-3.07283 -1.72958,-0.66417 -2.404427,-1.10311 -3.690159,-2.40023 l -1.573488,-1.58741 0.472538,-5.58099 c 0.877062,-10.35864 0.873472,-9.6254 0.04866,-9.93899 -0.43797,-0.16652 -4.092784,-0.27222 -9.41277,-0.27222 -5.047858,0 -8.953805,-0.10813 -9.309338,-0.25772 -0.336895,-0.14174 -1.133032,-0.72301 -1.769194,-1.29169 l -1.156656,-1.03398 0.458397,-5.25674 c 0.252119,-2.89121 0.568444,-5.4651 0.702945,-5.71976 0.213598,-0.40442 0.6767,-0.46302 3.659207,-0.46302 2.105246,0 3.480677,-0.10682 3.586818,-0.27856 0.192077,-0.31079 3.284174,-34.866218 3.293031,-36.800947 0.0064,-1.399812 -0.187847,-1.549661 -2.008889,-1.549661 -1.429611,0 -2.691,-0.496232 -3.618154,-1.423387 -0.381304,-0.381304 -0.805016,-0.69328 -0.941583,-0.69328 -0.136566,0 -0.311165,-0.163819 -0.387998,-0.364041 -0.223458,-0.582323 0.833882,-11.075908 1.147652,-11.389882 0.301622,-0.301818 24.974381,-0.572804 26.130731,-0.286999 0.33257,0.0822 0.71657,0.443782 0.85335,0.80352 0.13677,0.359738 0.36762,0.654069 0.51301,0.654069 0.56531,0 1.07164,1.590842 1.06951,3.360298 -0.003,2.528489 -0.46904,6.307549 -0.90701,7.355777 -0.54668,1.308358 -1.40746,1.734502 -3.97661,1.968669 -2.46325,0.224514 -3.17747,0.605074 -3.4319,1.828628 -0.18909,0.909327 -0.85884,8.607456 -1.07375,12.341836 -0.0921,1.60073 -0.51705,6.98589 -0.944289,11.96703 -0.757179,8.82808 -0.917448,11.67746 -0.641297,11.40131 0.07452,-0.0745 0.548982,-4.88663 1.054376,-10.69358 0.89195,-10.24867 1.09196,-12.18393 1.35625,-13.12329 0.2539,-0.90243 7.98272,-3.45429 13.99036,-4.61928 3.44558,-0.66815 11.48742,-0.66534 15.08124,0.005 5.85428,1.09243 12.14259,3.36853 13.67734,4.95063 1.29133,1.33117 1.42679,2.21582 1.05018,6.85877 -1.19262,14.70331 -4.09891,46.87794 -4.30818,47.69462 -0.41883,1.63443 -1.59692,2.71616 -3.94374,3.62119 -2.70014,1.04129 -7.16214,2.27117 -10.17976,2.8059 -2.304,0.40828 -10.38987,0.72437 -12.30313,0.48096 z m 7.69073,-14.14886 c 4.02543,-0.43792 5.06784,-0.75334 5.29295,-1.60159 0.10261,-0.38665 0.32665,-2.82743 0.49788,-5.42396 0.38855,-5.89212 1.4831,-18.4947 1.97263,-22.71263 0.5569,-4.7984 0.72368,-7.63487 0.47122,-8.01434 -0.4018,-0.60394 -3.71069,-0.91758 -8.25249,-0.78222 -4.74929,0.14155 -6.12679,0.4443 -6.9181,1.52052 -0.56042,0.7622 -1.0257,4.45405 -0.98369,7.80521 0.0249,1.98895 0.0394,2.03991 0.24024,0.84466 0.3529,-2.10051 0.14907,-2.03529 6.3606,-2.03529 4.09258,0 5.58192,0.0852 5.77923,0.33073 0.1462,0.1819 0.63351,0.77041 1.0829,1.3078 1.31886,1.57709 1.3631,2.07658 0.77892,8.79586 -0.70509,8.10996 -0.76459,8.50752 -1.42041,9.48977 -1.0647,1.59463 -1.81144,1.7708 -7.50788,1.77126 -7.33436,5.3e-4 -7.3887,0.0363 -7.65495,5.03109 -0.17764,3.33244 -0.166,3.34887 2.60181,3.66996 2.84892,0.33051 4.64337,0.33125 7.65914,0.003 z"
         id="path35"
         inkscape:connector-curvature="0" />
      <path
         style="fill:#5f646b;stroke-width:0.26458335"
         d="m 112.42596,169.80667 c -4.9745,-0.80526 -10.47958,-2.53376 -13.564743,-4.25908 l -1.744093,-0.97535 0.166512,-1.74624 c 0.669058,-7.01647 1.154229,-13.77023 1.033309,-14.38399 -0.07927,-0.40234 -0.278733,-0.81906 -0.443259,-0.92605 -0.164525,-0.10699 -4.466325,-0.26558 -9.559555,-0.35243 -8.538286,-0.1456 -11.500069,-0.38319 -12.077932,-0.9689 -0.227272,-0.23036 0.646653,-10.39594 0.93365,-10.86031 0.135138,-0.21866 1.251848,-0.31601 3.624945,-0.31601 3.308788,0 3.438142,-0.021 3.670911,-0.59531 0.132699,-0.32742 0.909419,-8.39391 1.726045,-17.92552 0.816626,-9.53162 1.549977,-18.044585 1.629668,-18.91771 0.08004,-0.876905 0.01841,-1.91319 -0.137669,-2.315104 -0.252449,-0.650063 -0.417195,-0.728788 -1.545881,-0.738714 -0.694826,-0.0061 -2.156289,-0.225623 -3.247695,-0.487806 -1.654868,-0.397541 -1.998541,-0.572396 -2.069683,-1.053021 -0.101574,-0.68622 0.723523,-10.102653 0.911939,-10.407516 0.07185,-0.11626 5.998022,-0.211381 13.169267,-0.211381 h 13.038624 l 0.34652,2.22752 c 0.40021,2.572676 0.18851,7.135869 -0.39595,8.534678 -0.42918,1.027166 -1.23712,1.408023 -2.99138,1.410111 -2.79814,0.0033 -4.33771,1.07112 -4.64402,3.220928 -0.355058,2.491975 -3.096586,35.068415 -3.023543,35.927535 0.06677,0.78534 0.20406,0.95358 0.952231,1.16686 0.662614,0.18889 0.959434,0.1589 1.226314,-0.1239 0.246576,-0.26129 0.643508,-3.78281 1.324418,-11.75019 0.53477,-6.2574 1.038,-11.81148 1.1183,-12.3424 0.12079,-0.79862 0.31224,-1.03735 1.10867,-1.38249 5.1757,-2.24293 11.82577,-3.8297 17.896,-4.27015 2.79337,-0.20268 7.71684,0.20771 11.19132,0.93285 2.70787,0.56514 8.24219,2.34684 10.10764,3.25402 1.17322,0.57054 1.19624,0.6071 1.57437,2.50063 0.44558,2.23135 0.61012,-0.17449 -2.12137,31.019 -1.45271,16.58988 -1.96403,21.5037 -2.31268,22.225 -0.32637,0.6752 -0.84178,1.11713 -1.90282,1.63151 -1.70824,0.82814 -7.13799,2.44448 -10.17389,3.02858 -3.04509,0.58587 -11.76005,0.72157 -14.79449,0.23035 z m 11.69126,-12.18508 c 3.16013,-0.46924 3.69153,-0.67634 3.87549,-1.51039 0.0713,-0.32323 0.37552,-3.62377 0.67605,-7.33456 0.30054,-3.71078 0.95799,-11.30647 1.46101,-16.87932 0.91779,-10.16811 1.0733,-13.16227 0.71208,-13.71049 -0.31991,-0.48554 -3.46894,-0.8956 -6.87764,-0.8956 -6.16559,0 -9.28192,0.81089 -10.16818,2.64583 -0.31814,0.65869 -0.61085,2.82157 -1.01388,7.49171 -0.31164,3.61112 -0.50756,6.71958 -0.43537,6.90769 0.16223,0.42276 1.77785,0.77406 2.09613,0.45578 0.12798,-0.12798 0.34891,-1.52845 0.49096,-3.11216 0.14205,-1.58371 0.31553,-3.14973 0.38552,-3.48003 l 0.12725,-0.60056 5.61604,0.0714 5.61604,0.0714 0.069,0.66146 c 0.0379,0.3638 0.19655,1.3163 0.3525,2.11666 0.22357,1.14745 0.16409,2.82098 -0.28125,7.91302 -0.57537,6.57874 -0.87281,7.96283 -1.8202,8.46986 -0.32153,0.17207 -2.30528,0.28649 -4.98334,0.28741 -8.78716,0.003 -9.28865,0.35743 -9.41593,6.65434 l -0.0603,2.98419 0.71372,0.34712 c 1.80366,0.87723 8.41427,1.10603 12.86437,0.44526 z"
         id="path33"
         inkscape:connector-curvature="0" />
      <path
         style="fill:#d6242c;stroke-width:0.26458335"
         d="m 112.39122,169.11574 c -4.04837,-0.50594 -10.15936,-2.30917 -13.626047,-4.02076 -1.449379,-0.71559 -1.41088,0.0276 -0.533328,-10.29548 0.520295,-6.12049 0.581237,-7.66838 0.312502,-7.9375 -0.253601,-0.25396 -2.932742,-0.36611 -11.147284,-0.46661 -5.947396,-0.0728 -10.872794,-0.19182 -10.945329,-0.26458 -0.130082,-0.13049 0.499402,-8.31808 0.767907,-9.98802 l 0.13826,-0.8599 h 3.566435 c 3.457546,0 3.57309,-0.0182 3.784424,-0.59531 0.230093,-0.62836 3.486767,-37.409602 3.473003,-39.224477 -0.0044,-0.582083 -0.0955,-1.18939 -0.202412,-1.34957 -0.112163,-0.168047 -1.588464,-0.368355 -3.490161,-0.473553 -1.812676,-0.100273 -3.350484,-0.237024 -3.417351,-0.303891 -0.110255,-0.110256 0.274396,-5.382695 0.670014,-9.183923 l 0.158337,-1.521354 h 12.93041 12.93041 v 2.335297 c 0,2.944302 -0.49915,8.018704 -0.82813,8.418886 -0.15318,0.186323 -1.46399,0.339263 -3.40152,0.396875 -1.73377,0.05155 -3.27553,0.216979 -3.42615,0.367613 -0.15061,0.150634 -0.385163,0.865009 -0.521225,1.5875 -0.500335,2.656783 -3.521358,38.801277 -3.264546,39.058097 0.449189,0.44919 3.087434,0.59462 3.412215,0.1881 0.159671,-0.19986 0.730256,-5.51241 1.274986,-11.87112 0.54229,-6.33015 1.06819,-11.92311 1.16866,-12.42879 0.17184,-0.86484 0.31556,-0.9718 2.42117,-1.80188 1.23117,-0.48536 3.67389,-1.28012 5.42826,-1.76613 10.68704,-2.96059 20.2148,-2.43515 30.54461,1.68449 l 2.51354,1.00243 0.0784,1.76585 c 0.0431,0.97122 -0.4076,7.32945 -1.00155,14.12942 -0.59396,6.79996 -1.54974,17.78091 -2.12398,24.40211 -1.30109,15.00235 -1.23405,14.48604 -1.94014,14.94113 -1.78214,1.14859 -10.52815,3.58407 -14.71722,4.09826 -2.61581,0.32108 -8.32887,0.30901 -10.98714,-0.0232 z m 13.34433,-11.45876 c 1.08198,-0.22323 2.08312,-0.52175 2.22474,-0.66337 0.27627,-0.27626 0.31725,-0.68822 2.15629,-21.67401 1.33437,-15.22681 1.45845,-17.33893 1.04302,-17.75436 -1.06318,-1.06318 -10.33661,-1.48929 -14.79959,-0.68003 -2.96946,0.53845 -3.44567,0.83664 -3.68314,2.30631 -0.42936,2.65724 -1.44514,15.4346 -1.24309,15.63665 0.39373,0.39373 3.11337,0.55471 3.33422,0.19736 0.11011,-0.17816 0.33476,-1.83025 0.49921,-3.6713 l 0.29901,-3.34738 h 5.42395 5.42396 l 0.0801,1.24297 c 0.10025,1.55608 -1.22097,16.67658 -1.47834,16.9186 -0.10408,0.0979 -3.22533,0.2292 -6.93611,0.29184 -3.71078,0.0626 -6.9507,0.20374 -7.19983,0.31354 -0.24912,0.10981 -0.51318,0.39701 -0.58679,0.63822 -0.23138,0.75818 -0.67529,5.11119 -0.74525,7.30794 -0.0664,2.08602 -0.0596,2.11053 0.69523,2.47847 2.30107,1.12173 11.02626,1.37998 15.49243,0.45855 z"
         id="path31"
         inkscape:connector-curvature="0" />
      <path
         style="fill:#a91e2c;stroke-width:0.26458335"
         d="m 112.39122,169.11574 c -4.04837,-0.50594 -10.15936,-2.30917 -13.626047,-4.02076 -1.449379,-0.71559 -1.41088,0.0276 -0.533328,-10.29548 0.520295,-6.12049 0.581237,-7.66838 0.312502,-7.9375 -0.253601,-0.25396 -2.932742,-0.36611 -11.147284,-0.46661 -5.947396,-0.0728 -10.872794,-0.19182 -10.945329,-0.26458 -0.130082,-0.13049 0.499402,-8.31808 0.767907,-9.98802 l 0.13826,-0.8599 h 3.566435 c 3.457546,0 3.57309,-0.0182 3.784424,-0.59531 0.230093,-0.62836 3.486767,-37.409602 3.473003,-39.224477 -0.0044,-0.582083 -0.0955,-1.18939 -0.202412,-1.34957 -0.112163,-0.168047 -1.588464,-0.368355 -3.490161,-0.473553 -1.812676,-0.100273 -3.350484,-0.237024 -3.417351,-0.303891 -0.110255,-0.110256 0.274396,-5.382695 0.670014,-9.183923 l 0.158337,-1.521354 h 12.93041 12.93041 v 2.335297 c 0,2.944302 -0.49915,8.018704 -0.82813,8.418886 -0.15318,0.186323 -1.46399,0.339263 -3.40152,0.396875 -1.73377,0.05155 -3.27553,0.216979 -3.42615,0.367613 -0.15061,0.150634 -0.385163,0.865009 -0.521225,1.5875 -0.500335,2.656783 -3.521358,38.801277 -3.264546,39.058097 0.449189,0.44919 3.087434,0.59462 3.412215,0.1881 0.159671,-0.19986 0.730256,-5.51241 1.274986,-11.87112 0.54229,-6.33015 1.06819,-11.92311 1.16866,-12.42879 0.17184,-0.86484 0.31556,-0.9718 2.42117,-1.80188 1.23117,-0.48536 3.67389,-1.28012 5.42826,-1.76613 10.68704,-2.96059 20.2148,-2.43515 30.54461,1.68449 l 2.51354,1.00243 0.0784,1.76585 c 0.0431,0.97122 -0.4076,7.32945 -1.00155,14.12942 -0.59396,6.79996 -1.54974,17.78091 -2.12398,24.40211 -1.30109,15.00235 -1.23405,14.48604 -1.94014,14.94113 -1.78214,1.14859 -10.52815,3.58407 -14.71722,4.09826 -2.61581,0.32108 -8.32887,0.30901 -10.98714,-0.0232 z m 8.73125,-2.09314 c 3.90766,-0.36847 7.42196,-1.10889 11.31751,-2.38446 4.16399,-1.36347 4.24887,-1.42048 3.23457,-2.17241 -0.43656,-0.32364 -1.17952,-0.94647 -1.65102,-1.38407 l -0.85727,-0.79564 2.02079,-22.99342 c 1.3968,-15.89337 1.9393,-23.12262 1.75688,-23.41182 -0.29223,-0.46329 -3.6274,-1.5947 -6.69334,-2.27063 -3.115,-0.68674 -10.33436,-0.83749 -13.82793,-0.28875 -2.94399,0.46242 -6.92857,1.5108 -8.15754,2.14632 -0.66423,0.34349 -0.78583,0.2988 -2.22273,-0.81698 -0.83603,-0.64919 -1.61749,-1.18035 -1.73659,-1.18035 -0.11909,0 -0.28415,0.50602 -0.36678,1.12448 -0.25515,1.90964 -1.99885,22.41918 -1.99885,23.51065 v 1.02946 h 1.40464 c 0.77255,0 1.58957,-0.14883 1.8156,-0.33073 0.3296,-0.26524 0.59883,-2.52397 1.35974,-11.40743 0.52183,-6.09219 1.01323,-11.14116 1.09201,-11.21994 0.0788,-0.0788 0.73236,0.22298 1.45239,0.67058 l 1.30916,0.81381 3.12542,-0.65013 c 5.81533,-1.20968 14.16931,-1.07623 18.80198,0.30034 1.19403,0.3548 1.38906,0.50539 1.38906,1.07258 0,0.84584 -3.38251,39.86713 -3.57121,41.19815 -0.13696,0.9661 -0.0964,1.02863 1.18553,1.82549 0.73004,0.45382 1.32735,0.91794 1.32735,1.03139 0,0.5742 -6.5924,1.97901 -11.31293,2.41072 -5.64633,0.51639 -12.37146,-0.35409 -16.53983,-2.14086 -0.97482,-0.41786 -1.25023,-0.67007 -1.2461,-1.14113 0.0195,-2.22658 1.32442,-14.60799 1.5649,-14.84847 0.20084,-0.20083 3.08342,-0.32833 9.01977,-0.39897 6.9263,-0.0824 8.72461,-0.17466 8.72461,-0.44755 0,-0.18907 -0.0916,-0.38344 -0.20351,-0.43195 -0.11193,-0.0485 -0.70245,-0.68548 -1.31226,-1.4155 l -1.10876,-1.32731 0.24863,-2.64144 c 0.13675,-1.45279 0.29889,-3.17381 0.36032,-3.82448 0.10878,-1.1522 0.0701,-1.22289 -1.48517,-2.71198 -0.87827,-0.84092 -1.68129,-1.52894 -1.78449,-1.52894 -0.1032,0 -0.32496,1.63416 -0.4928,3.63147 l -0.30516,3.63146 1.50511,1.52099 c 0.82782,0.83655 1.43848,1.58763 1.35703,1.66908 -0.17509,0.17509 -29.615166,0.19064 -29.790076,0.0157 -0.178788,-0.17877 4.361449,-51.75821 4.574065,-51.963743 0.100616,-0.09726 0.807601,0.507766 1.571078,1.34451 l 1.388139,1.521355 h 3.743094 c 2.0587,0 3.74309,-0.06784 3.74309,-0.150767 0,-0.214553 -1.50562,-2.375395 -1.99865,-2.868419 -0.35563,-0.355628 -1.48632,-0.412482 -8.136873,-0.409141 l -7.723852,0.0039 -1.555974,-1.604545 c -0.855786,-0.8825 -1.608105,-1.552415 -1.67182,-1.4887 -0.125159,0.125159 -0.589744,4.597321 -0.601496,5.790088 l -0.0072,0.727605 3.373438,0.0041 c 1.855391,0.0022 3.52585,0.100768 3.712133,0.218976 0.270858,0.171878 -0.03234,4.476721 -1.513828,21.493341 -1.018888,11.70313 -1.925053,21.94512 -2.0137,22.75997 l -0.161177,1.48155 1.345643,1.53775 c 0.740104,0.84575 1.291351,1.59203 1.224994,1.65839 -0.06636,0.0663 -1.704082,0.11198 -3.639389,0.10139 -3.086444,-0.0169 -3.567497,-0.0792 -3.915614,-0.50746 -1.738559,-2.13863 -2.377774,-2.7591 -2.492387,-2.41931 -0.183853,0.54507 -0.616638,6.15742 -0.492719,6.38958 0.05826,0.10914 5.092491,0.19844 11.18719,0.19844 6.094698,0 11.142391,0.0989 11.217101,0.21977 0.0747,0.12088 -0.21454,4.13924 -0.64277,8.92969 -0.428227,4.79045 -0.77998,8.96915 -0.78167,9.28599 -0.0026,0.4754 0.355309,0.7135 2.04744,1.36232 4.22981,1.62185 8.03678,2.55086 12.03895,2.93785 3.21123,0.3105 4.25641,0.31166 7.47408,0.008 z m 4.61308,-9.36562 c 1.08198,-0.22323 2.08312,-0.52175 2.22474,-0.66337 0.27627,-0.27626 0.31725,-0.68822 2.15629,-21.67401 1.33437,-15.22681 1.45845,-17.33893 1.04302,-17.75436 -1.06318,-1.06318 -10.33661,-1.48929 -14.79959,-0.68003 -2.96946,0.53845 -3.44567,0.83664 -3.68314,2.30631 -0.42936,2.65724 -1.44514,15.4346 -1.24309,15.63665 0.39373,0.39373 3.11337,0.55471 3.33422,0.19736 0.11011,-0.17816 0.33476,-1.83025 0.49921,-3.6713 l 0.29901,-3.34738 h 5.42395 5.42396 l 0.0801,1.24297 c 0.10025,1.55608 -1.22097,16.67658 -1.47834,16.9186 -0.10408,0.0979 -3.22533,0.2292 -6.93611,0.29184 -3.71078,0.0626 -6.9507,0.20374 -7.19983,0.31354 -0.24912,0.10981 -0.51318,0.39701 -0.58679,0.63822 -0.23138,0.75818 -0.67529,5.11119 -0.74525,7.30794 -0.0664,2.08602 -0.0596,2.11053 0.69523,2.47847 2.30107,1.12173 11.02626,1.37998 15.49243,0.45855 z"
         id="path29"
         inkscape:connector-curvature="0" />
      <path
         style="fill:#5e2035;stroke-width:0.26458335"
         d="m 112.39122,169.11574 c -4.04837,-0.50594 -10.15936,-2.30917 -13.626047,-4.02076 -1.449379,-0.71559 -1.41088,0.0276 -0.533328,-10.29548 0.520295,-6.12049 0.581237,-7.66838 0.312502,-7.9375 -0.253601,-0.25396 -2.932742,-0.36611 -11.147284,-0.46661 -5.947396,-0.0728 -10.872794,-0.19182 -10.945329,-0.26458 -0.130082,-0.13049 0.499402,-8.31808 0.767907,-9.98802 l 0.13826,-0.8599 h 3.566435 c 3.457546,0 3.57309,-0.0182 3.784424,-0.59531 0.230093,-0.62836 3.486767,-37.409602 3.473003,-39.224477 -0.0044,-0.582083 -0.0955,-1.18939 -0.202412,-1.34957 -0.112163,-0.168047 -1.588464,-0.368355 -3.490161,-0.473553 -1.812676,-0.100273 -3.350484,-0.237024 -3.417351,-0.303891 -0.110255,-0.110256 0.274396,-5.382695 0.670014,-9.183923 l 0.158337,-1.521354 h 12.93041 12.93041 v 2.335297 c 0,2.944302 -0.49915,8.018704 -0.82813,8.418886 -0.15318,0.186323 -1.46399,0.339263 -3.40152,0.396875 -1.73377,0.05155 -3.27553,0.216979 -3.42615,0.367613 -0.15061,0.150634 -0.385163,0.865009 -0.521225,1.5875 -0.500335,2.656783 -3.521358,38.801277 -3.264546,39.058097 0.449189,0.44919 3.087434,0.59462 3.412215,0.1881 0.159671,-0.19986 0.730256,-5.51241 1.274986,-11.87112 0.54229,-6.33015 1.06819,-11.92311 1.16866,-12.42879 0.17184,-0.86484 0.31556,-0.9718 2.42117,-1.80188 1.23117,-0.48536 3.67389,-1.28012 5.42826,-1.76613 10.68704,-2.96059 20.2148,-2.43515 30.54461,1.68449 l 2.51354,1.00243 0.0784,1.76585 c 0.0431,0.97122 -0.4076,7.32945 -1.00155,14.12942 -0.59396,6.79996 -1.54974,17.78091 -2.12398,24.40211 -1.30109,15.00235 -1.23405,14.48604 -1.94014,14.94113 -1.78214,1.14859 -10.52815,3.58407 -14.71722,4.09826 -2.61581,0.32108 -8.32887,0.30901 -10.98714,-0.0232 z m 9.16623,-1.83022 c 3.6007,-0.36341 8.01528,-1.36224 11.828,-2.67614 1.69557,-0.58432 3.13031,-1.10935 3.18831,-1.16674 0.058,-0.0574 0.15036,-0.61252 0.20523,-1.23361 1.79138,-20.27741 4.31855,-49.75915 4.31896,-50.38474 5.3e-4,-0.80373 -0.0847,-0.8693 -2.16033,-1.66191 -8.56937,-3.27233 -16.8942,-3.91089 -25.62036,-1.96523 -3.11029,0.6935 -8.89427,2.53668 -9.33115,2.97356 -0.13353,0.13352 -0.70936,5.64316 -1.27963,12.24362 -0.57027,6.60047 -1.10044,12.38781 -1.17815,12.86075 l -0.1413,0.8599 h -3.676565 c -2.319332,0 -3.740965,-0.10421 -3.851024,-0.28229 -0.243768,-0.39443 3.607605,-44.489233 3.921295,-44.895316 0.181628,-0.235124 1.270132,-0.330729 3.765514,-0.330729 h 3.51003 l 0.14839,-0.859896 c 0.0816,-0.472943 0.22927,-2.080286 0.32812,-3.571875 l 0.17972,-2.711979 H 94.59974 83.486971 l -0.151906,0.992187 c -0.08355,0.545704 -0.23414,2.153047 -0.334649,3.571876 l -0.182743,2.579687 h 3.59251 c 1.975881,0 3.652513,0.09709 3.72585,0.215749 0.20223,0.327214 -3.738845,44.801816 -3.992553,45.055526 -0.121466,0.12147 -1.825886,0.25426 -3.787598,0.2951 l -3.566751,0.0743 -0.309552,3.43297 c -0.170253,1.88813 -0.252523,3.52524 -0.182822,3.63802 0.0697,0.11278 5.113301,0.20505 11.207999,0.20505 6.094699,0 11.133194,0.0893 11.196654,0.19844 0.0635,0.10914 -0.2215,3.94891 -0.63324,8.53281 -0.970804,10.80792 -0.988891,9.93442 0.21836,10.54627 1.64663,0.83453 5.68104,2.12819 8.44341,2.70744 4.6398,0.97292 8.45757,1.1983 12.82751,0.75725 z m -8.90165,-7.51777 c -3.46893,-0.54677 -5.10128,-0.94501 -5.41298,-1.32058 -0.21747,-0.26204 -0.13647,-2.10524 0.3104,-7.06307 l 0.60466,-6.7085 7.26717,-0.0705 c 3.99694,-0.0388 7.37693,-0.18026 7.51108,-0.31441 0.17582,-0.17582 1.42344,-12.23123 1.48747,-14.37307 0.003,-0.11325 -1.63095,-0.17278 -3.63186,-0.1323 l -3.63802,0.0736 -0.20962,2.38125 c -0.11528,1.30968 -0.29487,2.91703 -0.39906,3.57187 l -0.18945,1.19063 -3.54847,0.0741 c -1.95165,0.0408 -3.64745,-0.0249 -3.76843,-0.14584 -0.35622,-0.35621 1.53441,-20.73818 1.94747,-20.99476 1.3712,-0.85176 8.39038,-1.64377 12.91443,-1.45722 3.69934,0.15255 8.83095,0.954 9.33486,1.45791 0.29241,0.29241 -3.33271,42.29288 -3.67932,42.62853 -0.29733,0.28794 -3.56449,0.95214 -6.44235,1.30971 -2.92106,0.36294 -7.79122,0.31292 -10.45798,-0.10741 z m 13.07975,-2.11077 c 1.08198,-0.22323 2.08312,-0.52175 2.22474,-0.66337 0.27627,-0.27626 0.31725,-0.68822 2.15629,-21.67401 1.33437,-15.22681 1.45845,-17.33893 1.04302,-17.75436 -1.06318,-1.06318 -10.33661,-1.48929 -14.79959,-0.68003 -2.96946,0.53845 -3.44567,0.83664 -3.68314,2.30631 -0.42936,2.65724 -1.44514,15.4346 -1.24309,15.63665 0.39373,0.39373 3.11337,0.55471 3.33422,0.19736 0.11011,-0.17816 0.33476,-1.83025 0.49921,-3.6713 l 0.29901,-3.34738 h 5.42395 5.42396 l 0.0801,1.24297 c 0.10025,1.55608 -1.22097,16.67658 -1.47834,16.9186 -0.10408,0.0979 -3.22533,0.2292 -6.93611,0.29184 -3.71078,0.0626 -6.9507,0.20374 -7.19983,0.31354 -0.24912,0.10981 -0.51318,0.39701 -0.58679,0.63822 -0.23138,0.75818 -0.67529,5.11119 -0.74525,7.30794 -0.0664,2.08602 -0.0596,2.11053 0.69523,2.47847 2.30107,1.12173 11.02626,1.37998 15.49243,0.45855 z"
         id="path27"
         inkscape:connector-curvature="0" />
      <path
         style="fill:#1b2d47;stroke-width:0.26458335"
         d="m 112.39122,169.11574 c -4.04837,-0.50594 -10.15936,-2.30917 -13.626047,-4.02076 -1.449379,-0.71559 -1.41088,0.0276 -0.533328,-10.29548 0.520295,-6.12049 0.581237,-7.66838 0.312502,-7.9375 -0.253601,-0.25396 -2.932742,-0.36611 -11.147284,-0.46661 -5.947396,-0.0728 -10.872794,-0.19182 -10.945329,-0.26458 -0.130082,-0.13049 0.499402,-8.31808 0.767907,-9.98802 l 0.13826,-0.8599 h 3.566435 c 3.457546,0 3.57309,-0.0182 3.784424,-0.59531 0.230093,-0.62836 3.486767,-37.409602 3.473003,-39.224477 -0.0044,-0.582083 -0.0955,-1.18939 -0.202412,-1.34957 -0.112163,-0.168047 -1.588464,-0.368355 -3.490161,-0.473553 -1.812676,-0.100273 -3.350484,-0.237024 -3.417351,-0.303891 -0.110255,-0.110256 0.274396,-5.382695 0.670014,-9.183923 l 0.158337,-1.521354 h 12.93041 12.93041 v 2.335297 c 0,2.944302 -0.49915,8.018704 -0.82813,8.418886 -0.15318,0.186323 -1.46399,0.339263 -3.40152,0.396875 -1.73377,0.05155 -3.27553,0.216979 -3.42615,0.367613 -0.15061,0.150634 -0.385163,0.865009 -0.521225,1.5875 -0.500335,2.656783 -3.521358,38.801277 -3.264546,39.058097 0.449189,0.44919 3.087434,0.59462 3.412215,0.1881 0.159671,-0.19986 0.730256,-5.51241 1.274986,-11.87112 0.54229,-6.33015 1.06819,-11.92311 1.16866,-12.42879 0.17184,-0.86484 0.31556,-0.9718 2.42117,-1.80188 1.23117,-0.48536 3.67389,-1.28012 5.42826,-1.76613 10.68704,-2.96059 20.2148,-2.43515 30.54461,1.68449 l 2.51354,1.00243 0.0784,1.76585 c 0.0431,0.97122 -0.4076,7.32945 -1.00155,14.12942 -0.59396,6.79996 -1.54974,17.78091 -2.12398,24.40211 -1.30109,15.00235 -1.23405,14.48604 -1.94014,14.94113 -1.78214,1.14859 -10.52815,3.58407 -14.71722,4.09826 -2.61581,0.32108 -8.32887,0.30901 -10.98714,-0.0232 z m 10.56311,-1.68886 c 4.71916,-0.61863 13.09832,-2.98683 13.87372,-3.92113 0.18684,-0.22513 4.8104,-50.6717 4.80082,-52.38064 -0.003,-0.55213 -6.2327,-2.7254 -10.57953,-3.6908 -2.09233,-0.46468 -3.43643,-0.56229 -7.9425,-0.57673 -4.66647,-0.015 -5.84587,0.068 -8.44505,0.59443 -3.14199,0.63631 -9.94441,2.74448 -10.74537,3.33015 -0.39667,0.29006 -0.61275,2.07134 -1.56358,12.88966 -0.60682,6.9042 -1.19306,12.69832 -1.30276,12.87583 -0.24554,0.39728 -6.279245,0.45591 -6.670338,0.0648 -0.167521,-0.16752 0.405167,-7.84197 1.63381,-21.89427 1.04046,-11.89998 1.936387,-21.860153 1.990955,-22.133707 0.09099,-0.456189 0.370843,-0.495508 3.379893,-0.474871 1.80437,0.01238 3.48327,-0.08593 3.73089,-0.218445 0.62454,-0.334247 1.30754,-7.352004 0.74992,-7.705469 -0.45475,-0.288265 -21.937555,-0.294562 -22.39154,-0.0066 -0.354623,0.224966 -0.83478,3.807253 -0.84338,6.292173 -0.0058,1.661933 -0.01241,1.659304 4.136748,1.632132 1.660096,-0.01087 3.056046,0.02623 3.10211,0.08245 0.1186,0.144745 -3.735142,43.858917 -3.905682,44.303337 -0.108248,0.28209 -0.977828,0.383 -3.7897,0.43978 l -3.649218,0.0737 -0.173645,1.5875 c -0.09551,0.87312 -0.214568,2.59953 -0.264584,3.83645 l -0.09094,2.24896 11.178646,0.069 11.178645,0.069 -0.003,0.98931 c -0.002,0.54413 -0.29933,4.31814 -0.66146,8.3867 -0.899059,10.10104 -0.957262,9.30073 0.73065,10.04656 1.86758,0.82522 5.96584,2.11458 8.40052,2.6429 4.48757,0.97379 9.42536,1.16515 14.13499,0.54777 z m -11.22457,-8.18147 c -1.09141,-0.1932 -2.49039,-0.48917 -3.10886,-0.65771 -1.04601,-0.28507 -1.12448,-0.37006 -1.12448,-1.21795 0,-0.91352 0.64291,-8.56482 0.93881,-11.17279 l 0.1576,-1.38907 h 7.22461 c 5.45761,0 7.29141,-0.0809 7.49776,-0.33072 0.30922,-0.3744 1.45794,-12.58378 1.33007,-14.13678 l -0.0832,-1.01062 -3.59964,-0.0734 c -2.67384,-0.0545 -3.67067,0.0135 -3.87584,0.26458 -0.15191,0.18587 -0.40952,1.81141 -0.57246,3.61231 -0.16294,1.80089 -0.36061,3.37847 -0.43925,3.50572 -0.0786,0.12726 -1.56846,0.23137 -3.31069,0.23137 -2.54986,0 -3.19694,-0.0762 -3.31766,-0.39082 -0.0825,-0.21495 0.21999,-4.5905 0.67217,-9.72344 0.45218,-5.13293 0.82106,-9.59127 0.81974,-9.9074 -0.003,-0.69098 0.69717,-0.95488 4.07408,-1.53577 3.57088,-0.61426 7.85294,-0.77521 11.13705,-0.41859 3.16181,0.34333 6.4891,0.97491 6.8061,1.29192 0.33286,0.33286 -3.41307,41.89884 -3.79733,42.13633 -1.6681,1.03094 -13.32956,1.64838 -17.42856,0.92279 z m 14.00579,-1.58843 c 1.08198,-0.22323 2.08312,-0.52175 2.22474,-0.66337 0.27627,-0.27626 0.31725,-0.68822 2.15629,-21.67401 1.33437,-15.22681 1.45845,-17.33893 1.04302,-17.75436 -1.06318,-1.06318 -10.33661,-1.48929 -14.79959,-0.68003 -2.96946,0.53845 -3.44567,0.83664 -3.68314,2.30631 -0.42936,2.65724 -1.44514,15.4346 -1.24309,15.63665 0.39373,0.39373 3.11337,0.55471 3.33422,0.19736 0.11011,-0.17816 0.33476,-1.83025 0.49921,-3.6713 l 0.29901,-3.34738 h 5.42395 5.42396 l 0.0801,1.24297 c 0.10025,1.55608 -1.22097,16.67658 -1.47834,16.9186 -0.10408,0.0979 -3.22533,0.2292 -6.93611,0.29184 -3.71078,0.0626 -6.9507,0.20374 -7.19983,0.31354 -0.24912,0.10981 -0.51318,0.39701 -0.58679,0.63822 -0.23138,0.75818 -0.67529,5.11119 -0.74525,7.30794 -0.0664,2.08602 -0.0596,2.11053 0.69523,2.47847 2.30107,1.12173 11.02626,1.37998 15.49243,0.45855 z"
         id="path25"
         inkscape:connector-curvature="0" />
      <path
         style="fill:#13203d;stroke-width:0.26458335"
         d="m 114.50788,168.8799 c -3.02727,-0.2608 -5.17771,-0.64422 -8.33437,-1.48598 -2.30369,-0.61431 -7.340833,-2.44605 -8.140068,-2.96011 -0.267399,-0.17198 -0.198128,-1.74829 0.343844,-7.82451 0.373285,-4.18502 0.643033,-8.22497 0.59944,-8.97766 l -0.07926,-1.36854 -11.029955,-0.13794 c -6.066475,-0.0759 -11.077979,-0.19493 -11.136676,-0.26458 -0.08232,-0.0977 0.727436,-9.95506 0.841764,-10.24696 0.01425,-0.0364 1.626225,-0.0661 3.582168,-0.0661 2.498803,0 3.615152,-0.0953 3.754313,-0.32046 0.251799,-0.40742 3.52154,-37.268504 3.530591,-39.801755 0.0053,-1.483553 -0.08324,-1.924453 -0.411761,-2.050521 -0.230184,-0.08833 -1.837527,-0.160599 -3.571875,-0.160599 -3.094083,0 -3.153341,-0.01119 -3.152281,-0.595313 5.94e-4,-0.327421 0.177777,-2.500312 0.39374,-4.828645 0.215963,-2.328334 0.394071,-4.382162 0.395795,-4.564063 0.0025,-0.259946 2.721196,-0.330729 12.703135,-0.330729 h 12.699996 v 0.814364 c 0,0.943054 -0.47081,6.72444 -0.68243,8.379907 l -0.14374,1.124479 h -3.29108 c -2.9383,0 -3.3478,0.05672 -3.820246,0.529167 -0.291041,0.291041 -0.529166,0.726392 -0.529166,0.967445 0,0.241053 -0.781775,9.357423 -1.737278,20.258593 -1.354873,15.45752 -1.668061,19.90371 -1.422813,20.19922 0.407572,0.49109 3.770011,0.53014 4.149373,0.0482 0.14319,-0.1819 0.75103,-5.91838 1.35078,-12.74773 0.69065,-7.8645 1.20054,-12.48504 1.39073,-12.60258 0.16516,-0.10207 2.10197,-0.78901 4.30402,-1.52652 8.94057,-2.9944 16.52984,-3.57351 24.79311,-1.8919 2.53793,0.51648 7.44745,2.08011 9.87206,3.14415 l 1.2927,0.5673 -0.15318,1.64765 c -0.0842,0.90621 -1.14046,13.01637 -2.34713,26.91146 -1.81483,20.89803 -2.26787,25.33773 -2.62166,25.69152 -0.56248,0.56248 -4.40748,1.94938 -8.04675,2.90248 -5.36985,1.40632 -10.78956,1.95986 -15.34584,1.56732 z m 8.46667,-1.34411 c 2.99162,-0.36354 8.52708,-1.75133 11.63981,-2.91822 l 2.37939,-0.89197 0.19267,-1.19062 c 0.10597,-0.65485 1.17091,-12.48836 2.36653,-26.2967 l 2.17386,-25.10607 -0.56328,-0.45612 c -0.72868,-0.59004 -6.55394,-2.52582 -9.60422,-3.19156 -5.36274,-1.17043 -11.65128,-1.15955 -17.53261,0.0303 -3.12842,0.63293 -9.82874,2.79388 -10.38378,3.34892 -0.20891,0.2089 -0.37983,0.65522 -0.37983,0.99181 0,0.33659 -0.47565,6.01332 -1.05699,12.61496 -0.58135,6.60163 -1.0576,12.03274 -1.05834,12.06912 -7.3e-4,0.0364 -1.549149,0.0661 -3.44092,0.0661 -3.390911,0 -3.439567,-0.008 -3.438488,-0.59531 5.29e-4,-0.32742 0.833546,-10.06078 1.850988,-21.62969 1.017442,-11.5689 1.850385,-21.298995 1.850988,-21.622421 0.0011,-0.576614 0.07427,-0.589476 3.764402,-0.661459 l 3.76331,-0.07341 0.19108,-1.121181 c 0.1051,-0.61665 0.22731,-2.402587 0.27159,-3.96875 l 0.0805,-2.847569 -11.276211,-0.06896 c -8.824335,-0.05397 -11.332507,0.0036 -11.535138,0.264583 -0.411931,0.530627 -0.901908,7.118676 -0.560075,7.53056 0.206822,0.249205 1.221271,0.343609 3.692357,0.343609 h 3.407187 v 0.628664 c 0,1.073708 -3.708086,43.140444 -3.833597,43.490604 -0.08633,0.24086 -1.037547,0.33183 -3.500287,0.33478 -1.859958,0.002 -3.523659,0.0943 -3.697114,0.20457 -0.354428,0.22534 -1.049107,6.8942 -0.788811,7.57252 0.144147,0.37564 1.358581,0.42094 11.282338,0.42094 h 11.120801 l -0.006,0.59532 c -0.003,0.32742 -0.348828,4.45553 -0.768012,9.17356 -0.419185,4.71804 -0.704824,8.72766 -0.634752,8.91027 0.157094,0.40938 4.022644,1.97239 6.700284,2.70922 1.96684,0.54123 5.62536,1.25558 7.40833,1.44653 2.09115,0.22394 7.69585,0.1635 9.92187,-0.107 z m -10.05417,-8.18475 c -3.20503,-0.49004 -5.42396,-1.07986 -5.42396,-1.44174 0,-0.84126 1.08291,-12.47056 1.18919,-12.77068 0.0898,-0.25371 1.80972,-0.33073 7.38585,-0.33073 4.43103,0 7.33091,-0.1006 7.428,-0.2577 0.23011,-0.37232 1.48278,-14.83635 1.30924,-15.11715 -0.23973,-0.38788 -7.78034,-0.29739 -7.92984,0.0952 -0.0693,0.1819 -0.27391,1.81901 -0.45472,3.63802 l -0.32876,3.30729 -3.37344,0.074 c -2.60739,0.0572 -3.37089,-0.003 -3.36223,-0.26458 0.006,-0.18625 0.40054,-4.72312 0.8764,-10.08192 0.62212,-7.00592 0.96307,-9.80378 1.21357,-9.9586 0.60521,-0.37404 4.53137,-1.05135 7.66805,-1.32283 4.05771,-0.3512 9.39032,0.0807 13.00139,1.0531 0.95206,0.25636 0.9862,0.30527 0.87634,1.25564 -0.0629,0.54389 -0.88895,9.9168 -1.83574,20.82869 -0.94679,10.91189 -1.83063,19.949 -1.9641,20.08246 -0.13346,0.13347 -1.34968,0.46971 -2.7027,0.74721 -2.83299,0.58103 -10.98516,0.85991 -13.57254,0.4643 z m 10.58334,-1.05678 c 3.46799,-0.48965 4.66413,-0.83988 4.88142,-1.4293 0.11105,-0.30123 0.95656,-9.28344 1.87891,-19.96047 1.92254,-22.25518 2.05867,-19.85726 -1.16118,-20.45317 -2.89346,-0.53551 -11.40498,-0.45987 -14.06378,0.12498 -1.16304,0.25583 -2.26569,0.61623 -2.45034,0.80088 -0.21874,0.21873 -0.56189,2.86698 -0.9847,7.59937 -0.35694,3.995 -0.70144,7.79869 -0.76557,8.45265 -0.18347,1.87092 0.0743,2.11828 2.20789,2.11828 1.14232,0 1.90119,-0.11978 2.02467,-0.31958 0.10863,-0.17577 0.32402,-1.81288 0.47863,-3.63802 l 0.28113,-3.31844 5.09323,-0.0719 5.09323,-0.0719 -0.004,1.79165 c -0.005,2.3001 -1.19869,15.53849 -1.43525,15.92124 -0.12293,0.19891 -2.41867,0.2902 -7.29818,0.2902 -6.51493,0 -7.13989,0.0394 -7.36716,0.46403 -0.43886,0.82002 -1.16429,10.11172 -0.82168,10.52454 0.27492,0.33125 2.95875,1.02777 4.88786,1.26851 1.71166,0.2136 7.77078,0.15404 9.525,-0.0936 z"
         id="path23"
         inkscape:connector-curvature="0" />
    </g>
  </g>
</svg>
